<?xml version="1.0" encoding="utf-8"?>
<!-- Generator: Adobe Illustrator 27.5.0, SVG Export Plug-In . SVG Version: 6.00 Build 0)  -->
<svg version="1.1" xmlns="http://www.w3.org/2000/svg" xmlns:xlink="http://www.w3.org/1999/xlink" x="0px" y="0px"
	 viewBox="0 0 1122 1122" style="enable-background:new 0 0 1122 1122;" xml:space="preserve">
<g id="Bg">
	<g>
		<g>
			<rect style="fill:#FFFFFF;" width="1122" height="1122"/>
		</g>
	</g>
</g>
<g id="Object">
	<g>
		<path style="fill:#616E7D;" d="M172.789,429.654c-3.611,3.629-3.721,9.439-0.295,13.22l89.76,99.171
			c1.775,1.956,4.282,3.097,6.917,3.155h0.202c2.571,0,4.998-1.017,6.841-2.814c51.676-52.045,114.948-88.258,183.982-106.384
			c33.381-8.766,68.097-13.354,103.541-13.354c33.509,0,66.468,4.097,98.272,12.013c68.652,17.098,131.936,52.056,183.935,102.53
			c3.779,3.681,9.777,3.632,13.475-0.069l89.783-89.789c1.82-1.797,2.814-4.273,2.797-6.859c0-2.537-1.023-5.004-2.866-6.801
			C845.43,332.28,708.577,276.473,563.738,276.473C409.896,276.473,271.049,330.876,172.789,429.654z"/>
		<path style="fill:#616E7D;" d="M561.322,482.314c-24.148,0-48.503,3.27-72.558,9.367
			c-60.302,15.284-118.658,48.902-166.918,97.422c-3.68,3.698-3.698,9.696-0.08,13.464l75.782,77.99
			c1.797,1.849,4.253,2.889,6.83,2.918c2.294-0.049,5.056-1.017,6.887-2.843c43.719-44.057,84.017-71.357,149.612-71.357
			c63.151,0,106.234,29.279,151.536,73.286c1.838,1.746,4.23,2.711,6.709,2.711l0.341-0.024c2.612-0.078,5.113-1.251,6.83-3.183
			l74.199-83.138c3.421-3.86,3.23-9.667-0.451-13.261c-47.29-46.279-106.396-79.111-166.71-94.123
			C609.288,485.552,585.06,482.314,561.322,482.314z"/>
		<path style="fill:#616E7D;" d="M469.141,753.652c0,50.658,41.223,91.875,91.87,91.875c50.652,0,91.846-41.217,91.846-91.875
			c0-50.653-41.193-91.864-91.846-91.864C510.363,661.788,469.141,702.999,469.141,753.652z M611.715,753.652
			c0,27.987-22.732,50.739-50.705,50.739c-27.967,0-50.728-22.752-50.728-50.739c0-27.972,22.761-50.727,50.728-50.727
			C588.983,702.924,611.715,725.679,611.715,753.652z"/>
		<path style="fill:#AAD4C8;" d="M510.282,753.652c0,27.987,22.761,50.739,50.728,50.739c27.973,0,50.705-22.752,50.705-50.739
			c0-27.972-22.732-50.727-50.705-50.727C533.043,702.924,510.282,725.679,510.282,753.652z"/>
	</g>
</g>
</svg>
